<svg width="74" height="40" viewBox="0 0 74 40" fill="none" xmlns="http://www.w3.org/2000/svg">
<path d="M18.5469 6.51325V31.8208C18.5469 32.0067 18.6795 32.1395 18.8651 32.1395H23.1346C23.3202 32.1395 23.4528 32.0067 23.4528 31.8208V6.51325C23.4528 6.32736 23.3202 6.19458 23.1346 6.19458H18.8386C18.6795 6.19458 18.5469 6.32736 18.5469 6.51325ZM5.2082 18.6226C5.2082 17.7994 6.375 17.2152 8.12521 17.2152C10.1406 17.2152 12.0234 17.9322 13.2167 18.9413C13.4289 19.1272 13.7736 19.0741 13.9062 18.8085L15.3382 15.9405C15.4443 15.7546 15.3912 15.4891 15.2321 15.3829C13.4554 14.0551 11.0687 13.0725 8.09869 13.0725C3.21932 13.0725 0.487937 15.8077 0.487937 18.9148C0.487937 26.191 11.5196 23.6682 11.5196 26.8815C11.5196 27.7578 10.5119 28.5014 8.41691 28.5014C6.32197 28.5014 3.82924 27.6781 2.39726 26.5097C2.18511 26.3238 1.86689 26.4035 1.70778 26.6425L0.063644 29.3777C-0.0424293 29.5636 -0.015911 29.8026 0.143199 29.9354C2.10555 31.5818 5.07561 32.5644 8.15173 32.5644C13.2963 32.5644 16.1868 30.015 16.1868 26.5894C16.1868 19.2865 5.2082 21.5438 5.2082 18.6226ZM26.8206 13.3646V31.7943C26.8206 31.9802 26.9532 32.1129 27.1388 32.1129H31.4083C31.5939 32.1129 31.7265 31.9802 31.7265 31.7943V13.3646C31.7265 13.1787 31.5939 13.0459 31.4083 13.0459H27.1388C26.9532 13.0725 26.8206 13.2053 26.8206 13.3646ZM47.5845 31.7943C47.5845 31.9802 47.7171 32.1129 47.9027 32.1129H52.1721C52.3578 32.1129 52.4904 31.9802 52.4904 31.7943V19.738C52.4904 16.1264 49.8385 13.0194 45.7812 13.0194C42.7316 13.0194 40.6897 14.5596 39.9472 15.914V13.3646C39.9472 13.1787 39.8146 13.0459 39.629 13.0459H35.3595C35.1739 13.0459 35.0413 13.1787 35.0413 13.3646V31.7943C35.0413 31.9802 35.1739 32.1129 35.3595 32.1129H39.629C39.8146 32.1129 39.9472 31.9802 39.9472 31.7943V21.6765C39.9472 19.4193 41.5913 17.4011 43.9249 17.4011C45.9138 17.4011 47.5845 18.4368 47.5845 21.0127V31.7943ZM55.9377 36.9726C55.8582 37.1054 55.8847 37.2647 55.9908 37.371C58.2448 39.283 60.6845 39.9734 63.7872 39.9734C68.3748 39.9734 73.8376 37.9021 73.8376 30.8117V13.8161C73.8376 13.6302 73.705 13.4974 73.5194 13.4974H69.2234C69.0378 13.4974 68.9052 13.6302 68.9052 13.8161V15.8874C67.7119 13.9223 65.6169 13.0459 63.3894 13.0459C58.6956 13.0459 54.9831 17.0293 54.9831 23.1106C54.9831 28.1561 58.5365 32.5909 63.3894 32.5909C65.6965 32.5909 67.4467 31.5022 68.9052 29.6698V30.971C68.9052 34.6357 66.1473 35.9901 63.7872 35.9901C61.5861 35.9901 59.7033 35.4058 58.2448 33.9718C58.1122 33.8391 57.8736 33.8656 57.7675 34.0249L55.9377 36.9726ZM64.7153 27.625C61.9574 27.625 60.0216 25.7661 60.0216 22.5529C60.0216 19.3396 61.9574 17.3745 64.7153 17.3745C67.2611 17.3745 68.9052 19.7645 68.9052 22.5529C68.9052 25.3412 67.2611 27.625 64.7153 27.625ZM71.7692 39.9734H72.0344V39.0174H72.3791V38.805H71.451V39.0174H71.7957V39.9734H71.7692ZM73.4398 39.522L73.5724 39.1502V40H73.8376V38.8315H73.4929L73.2012 39.5751L72.9095 38.8315H72.5647V40H72.8299V39.1502L73.1746 40H73.2807L73.4398 39.522Z" fill="#11AAE0"/>
<path d="M26.3439 5.7162C26.3704 4.06975 27.6963 2.76852 29.3404 2.79508C30.9846 2.82163 32.284 4.14942 32.2575 5.79587C32.2309 7.38921 30.905 8.74355 29.2609 8.717C27.6433 8.69044 26.3439 7.30955 26.3439 5.7162Z" fill="#11AAE0"/>
<path d="M35.5458 8.90192C37.0309 8.55669 38.1446 7.28202 38.1711 5.74179V5.71523C38.1711 4.175 37.0839 2.87377 35.6254 2.47544C35.4928 2.44888 35.3072 2.52855 35.4132 2.71444C36.0232 3.77667 36.1557 4.91856 36.1557 5.71523C36.1557 6.48535 35.9701 7.62724 35.3602 8.68947C35.2276 8.84881 35.3867 8.92847 35.5458 8.90192Z" fill="#11AAE0"/>
<path d="M41.1148 10.1505C43.1833 9.67253 44.7213 7.8933 44.7744 5.71573V5.68918C44.7744 3.53817 43.2628 1.70582 41.2209 1.17471C41.0088 1.1216 40.7701 1.25438 40.9027 1.49338C41.7513 2.9805 41.9634 4.57384 41.9369 5.66262C41.9104 6.75141 41.6717 8.34475 40.7966 9.80531C40.664 10.0709 40.9027 10.2036 41.1148 10.1505Z" fill="#11AAE0"/>
<path d="M47.055 0.404552C48.1157 2.29001 48.3809 4.30824 48.3809 5.68914C48.3544 7.07003 48.0627 9.08827 46.9489 10.9472C46.7633 11.2393 47.0815 11.5048 47.3202 11.4517C49.9455 10.8409 51.9078 8.47748 51.9344 5.7688V5.74225C51.9609 3.00701 50.025 0.696665 47.4263 0.0327721C47.1876 -0.0734507 46.8959 0.0858835 47.055 0.404552Z" fill="#11AAE0"/>
</svg>
