<svg width="96" height="32" viewBox="0 0 96 32" fill="none" xmlns="http://www.w3.org/2000/svg">
<path d="M11.1256 16.1761L17.1025 8.18123H14.6121C13.4914 8.18123 12.7858 8.57476 12.184 9.36181L9.02949 13.5871L5.97877 9.36181C5.39769 8.57476 4.67133 8.18123 3.55065 8.18123H1.06027L6.95417 16.1761L0.499939 24.8751H2.8658C3.98647 24.8751 4.69208 24.4816 5.29392 23.6945L9.02949 18.7443L17.7873 30.8194C18.3477 31.6065 19.0948 32 20.2154 32H22.7681L11.1256 16.1761ZM58.8993 24.8751H62.2821V8.18123H58.8993V24.8751ZM32.107 24.8751H35.4898V8.18123H32.107V24.8751ZM83.3258 30.7573L95.5494 8.18123H93.7232C92.6025 8.18123 91.7516 8.51262 91.295 9.36181L86.4803 18.2887L82.3089 9.36181C81.8731 8.4712 81.0015 8.18123 79.8808 8.18123H78.1168L84.5503 21.789L78.9469 32H80.7732C81.9146 32 82.8278 31.6479 83.3258 30.7573ZM39.5159 8.18123V24.8751H42.8987V13.4214C43.9571 11.9508 45.4513 11.0395 47.3191 11.0395C49.8095 11.0395 51.5112 12.6136 51.5112 15.7618V23.2803C51.5112 24.233 52.1753 24.8751 53.0885 24.8751H54.894V15.1612C54.894 10.8324 52.1338 7.82913 48.1492 7.82913C46.0116 7.82913 44.2476 8.57476 42.8987 9.81748V8.18123H39.5159ZM68.5496 18.9515C68.5496 22.5761 70.7702 25.165 74.7755 25.165C75.7509 25.165 76.581 25.0408 77.2451 24.8337L76.5603 21.8926C76.1245 21.9961 75.6057 22.0583 75.0246 22.0583C73.3851 22.0583 71.9323 21.1676 71.9323 18.8893V11.1845H76.6641L75.2943 8.18123H71.9531V1.47055L68.5703 2.9411V8.18123H65.0008V11.1845H68.5703L68.5496 18.9515ZM21.7097 11.1845V24.8544H25.0924V11.1845H29.4299V8.18123H25.0924V6.93851C25.0924 4.10097 26.7942 3.14822 28.4752 3.14822C28.911 3.14822 29.2846 3.21036 29.6166 3.31392L30.3015 0.331392C29.8657 0.165696 29.1808 0 28.2054 0C24.0133 0 21.7097 3.1068 21.7097 6.87638V8.18123H19.9457L17.8081 11.1845H21.7097Z" fill="#161616"/>
</svg>
