<svg width="106" height="18" viewBox="0 0 106 18" fill="none" xmlns="http://www.w3.org/2000/svg">
<path d="M91.1954 16.8118V3.15027H88.4992V1.25594H96.3527V3.15027H93.6565V16.8118H91.1954Z" fill="black"/>
<path d="M97.2195 1.25594H99.8364L100.744 8.25478C101.018 10.2794 101.226 12.3796 101.521 14.6595H101.737C102.032 12.2493 102.248 10.3185 102.516 8.25478L103.402 1.25594H106L103.342 16.8118H99.9568L97.2195 1.25594Z" fill="black"/>
<path d="M32.2068 16.8118V11.7985L29.1743 1.25594H31.6353L32.6963 6.00348C32.9534 7.11089 33.2104 8.29126 33.3854 9.22931H33.5057C33.6807 8.29126 33.9378 7.11089 34.1948 6.02172L35.2886 1.25594H37.7497L34.687 11.7985V16.8118H32.2068Z" fill="black"/>
<path d="M44.5285 10.3733V11.8924C44.5285 15.5143 43.2898 16.9943 40.908 16.9943C38.3677 16.9943 37.2848 15.4752 37.2848 11.8924V10.3733C37.2848 6.64978 38.4962 5.27138 40.9573 5.27138C43.3499 5.27138 44.5285 6.71492 44.5285 10.3733ZM42.1194 9.33102C42.1194 7.32465 41.6956 6.83739 40.908 6.83739C40.1205 6.83739 39.6967 7.32465 39.6967 9.33102V12.9034C39.6967 14.9671 40.1588 15.4361 40.908 15.4361C41.6573 15.4361 42.1194 14.9671 42.1194 12.9034V9.33102Z" fill="black"/>
<path d="M46.2048 13.9014V5.49545H48.5263V13.7867C48.5263 14.9879 48.8217 15.3267 49.4916 15.3267C49.9647 15.3267 50.4569 15.0817 50.8096 14.4824V5.49545H53.134V16.8119H51.3811L51.0284 15.2198H50.9682C50.3584 16.4575 49.4123 16.9057 48.3103 16.9057C46.9731 16.9005 46.2048 16.0302 46.2048 13.9014Z" fill="black"/>
<path d="M55.6552 16.8118V3.15027H52.9562V1.25594H60.8124V3.15027H58.1162V16.8118H55.6552Z" fill="black"/>
<path d="M60.4378 13.9014V5.49545H62.7621V13.7867C62.7621 14.9879 63.0574 15.3267 63.7274 15.3267C64.1977 15.3267 64.6899 15.0817 65.0454 14.4824V5.49545H67.3697V16.8119H65.6169L65.2614 15.2198H65.204C64.5915 16.4575 63.6481 16.9057 62.5461 16.9057C61.2062 16.9005 60.4378 16.0302 60.4378 13.9014Z" fill="black"/>
<path d="M76.7791 10.2612V11.9861C76.7791 15.3735 75.9588 16.9004 74.2197 16.9004C73.7403 16.9193 73.265 16.81 72.8474 16.5848C72.4299 16.3596 72.0868 16.0276 71.8571 15.6262H71.7395L71.4551 16.8118H69.4452V0.656643H71.7695V3.88247C71.7695 4.74495 71.7504 6.03997 71.7285 7.00928H71.827C72.5161 5.70644 73.402 5.30256 74.3865 5.30256C76.101 5.30777 76.7791 6.52723 76.7791 10.2612ZM74.3181 10.4488C74.3181 7.76492 73.9818 6.92069 73.1751 6.92069C72.5653 6.92069 71.9555 7.38971 71.7777 8.19747V14.6517C71.9015 14.8599 72.0819 15.0324 72.2999 15.1512C72.5179 15.2699 72.7654 15.3305 73.0165 15.3266C73.8833 15.3266 74.3181 14.5449 74.3181 11.8376V10.4488Z" fill="black"/>
<path d="M85.1358 11.8924H80.6293V13.018C80.6293 14.7821 80.8645 15.4387 81.7696 15.4387C82.6747 15.4387 82.97 14.8472 82.9919 13.4975L85.0592 13.6095C85.2342 15.8791 83.8177 16.976 81.7122 16.976C79.0132 16.976 78.2476 15.2511 78.2476 12.3432V10.2247C78.2476 6.88427 79.2511 5.30784 81.7887 5.30784C84.3264 5.30784 85.1358 6.64976 85.1358 10.1101V11.8924ZM80.6293 9.32318V10.6H82.8525V9.32318C82.8525 7.37154 82.5982 6.88427 81.7313 6.88427C80.8645 6.88427 80.6293 7.38977 80.6293 9.32318Z" fill="black"/>
<path d="M2.94779 17.445C2.3778 17.293 1.85804 17.0047 1.43784 16.6075C1.01764 16.2103 0.710957 15.7174 0.546899 15.1754C0 13.1691 0 8.98437 0 8.98437C0 8.98437 0 4.81529 0.546899 2.81413C0.707852 2.27072 1.01349 1.77619 1.43416 1.37854C1.85483 0.980879 2.37624 0.693601 2.94779 0.544586C5.03421 4.04627e-08 13.4592 0 13.4592 0C13.4592 0 21.906 4.04627e-08 23.9925 0.544586C24.5646 0.688512 25.0864 0.97438 25.5048 1.37306C25.9232 1.77174 26.2232 2.26899 26.3742 2.81413C26.9567 4.80226 26.9567 8.99479 26.9567 8.99479C26.9567 8.99479 26.9567 13.1795 26.3852 15.1859C26.2311 15.7296 25.93 16.2253 25.5121 16.6235C25.0942 17.0217 24.574 17.3086 24.0034 17.4554C21.917 18 13.4701 18 13.4701 18C13.4701 18 5.04514 17.9896 2.94779 17.445ZM10.7931 12.8486L17.7824 8.99479L10.7931 5.141V12.8486Z" fill="#FF0000"/>
<path d="M10.7931 12.8486L17.7824 8.98448L10.7931 5.141V12.8486Z" fill="white"/>
</svg>
