<svg width="143" height="24" viewBox="0 0 143 24" fill="none" xmlns="http://www.w3.org/2000/svg">
<path d="M122.427 22.4158V4.20036H118.832V1.67459H129.304V4.20036H125.709V22.4158H122.427Z" fill="black"/>
<path d="M130.459 1.67459H133.949L135.159 11.0064C135.524 13.7059 135.801 16.5061 136.195 19.546H136.483C136.876 16.3324 137.164 13.758 137.522 11.0064L138.703 1.67459H142.167L138.623 22.4158H134.109L130.459 1.67459Z" fill="black"/>
<path d="M43.7758 22.4158V15.7313L39.7324 1.67459H43.0138L44.4284 8.00464C44.7711 9.48119 45.1139 11.055 45.3472 12.3057H45.5076C45.741 11.055 46.0837 9.48119 46.4264 8.02896L47.8848 1.67459H51.1662L47.0827 15.7313V22.4158H43.7758Z" fill="black"/>
<path d="M60.2047 13.8311V15.8565C60.2047 20.6857 58.5531 22.6591 55.3774 22.6591C51.9903 22.6591 50.5465 20.6336 50.5465 15.8565V13.8311C50.5465 8.86637 52.1616 7.0285 55.443 7.0285C58.6333 7.0285 60.2047 8.95323 60.2047 13.8311ZM56.9926 12.4414C56.9926 9.7662 56.4274 9.11652 55.3774 9.11652C54.3273 9.11652 53.7622 9.7662 53.7622 12.4414V17.2045C53.7622 19.9561 54.3784 20.5815 55.3774 20.5815C56.3764 20.5815 56.9926 19.9561 56.9926 17.2045V12.4414Z" fill="black"/>
<path d="M62.4397 18.5351V7.32727H65.5351V18.3823C65.5351 19.9839 65.9289 20.4356 66.8222 20.4356C67.4529 20.4356 68.1092 20.109 68.5795 19.3099V7.32727H71.6786V22.4159H69.3415L68.8712 20.2931H68.791C67.9779 21.9434 66.7164 22.5409 65.2471 22.5409C63.4642 22.534 62.4397 21.3736 62.4397 18.5351Z" fill="black"/>
<path d="M75.0402 22.4158V4.20036H71.4416V1.67459H81.9165V4.20036H78.3216V22.4158H75.0402Z" fill="black"/>
<path d="M81.417 18.5351V7.32727H84.5161V18.3823C84.5161 19.9839 84.9099 20.4356 85.8031 20.4356C86.4303 20.4356 87.0865 20.109 87.5605 19.3099V7.32727H90.6596V22.4159H88.3225L87.8485 20.2931H87.772C86.9553 21.9434 85.6974 22.5409 84.2281 22.5409C82.4415 22.534 81.417 21.3736 81.417 18.5351Z" fill="black"/>
<path d="M103.206 13.6815V15.9815C103.206 20.498 102.112 22.5339 99.7929 22.5339C99.1537 22.5591 98.5199 22.4133 97.9632 22.113C97.4065 21.8128 96.9491 21.3701 96.6427 20.835H96.486L96.1068 22.4158H93.427V0.875525H96.5261V5.17662C96.5261 6.3266 96.5005 8.05329 96.4714 9.3457H96.6026C97.5214 7.60859 98.7027 7.07008 100.015 7.07008C102.301 7.07703 103.206 8.70297 103.206 13.6815ZM99.9241 13.9317C99.9241 10.3532 99.4757 9.22758 98.4001 9.22758C97.5871 9.22758 96.774 9.85294 96.537 10.93V19.5356C96.702 19.8132 96.9426 20.0432 97.2332 20.2016C97.5238 20.3599 97.8539 20.4407 98.1886 20.4355C99.3444 20.4355 99.9241 19.3932 99.9241 15.7835V13.9317Z" fill="black"/>
<path d="M114.348 15.8565H108.339V17.3574C108.339 19.7094 108.653 20.5849 109.859 20.5849C111.066 20.5849 111.46 19.7963 111.489 17.9966L114.246 18.146C114.479 21.1721 112.59 22.6347 109.783 22.6347C106.184 22.6347 105.163 20.3348 105.163 16.4575V13.633C105.163 9.17903 106.501 7.07712 109.885 7.07712C113.268 7.07712 114.348 8.86635 114.348 13.4801V15.8565ZM108.339 12.4309V14.1333H111.303V12.4309C111.303 9.82871 110.964 9.17903 109.808 9.17903C108.653 9.17903 108.339 9.85303 108.339 12.4309Z" fill="black"/>
<path d="M4.76372 23.26C4.00374 23.0573 3.31072 22.673 2.75046 22.1434C2.1902 21.6137 1.78129 20.9565 1.56254 20.2339C0.833344 17.5588 0.833344 11.9792 0.833344 11.9792C0.833344 11.9792 0.833344 6.42038 1.56254 3.75217C1.77715 3.02763 2.18467 2.36826 2.74556 1.83805C3.30646 1.30784 4.00167 0.924802 4.76372 0.726115C7.54562 5.39503e-08 18.7789 0 18.7789 0C18.7789 0 30.0414 5.39503e-08 32.8233 0.726115C33.5861 0.918016 34.2819 1.29917 34.8397 1.83075C35.3976 2.36232 35.7976 3.02532 35.999 3.75217C36.7756 6.40301 36.7756 11.9931 36.7756 11.9931C36.7756 11.9931 36.7756 17.5727 36.0135 20.2478C35.8081 20.9728 35.4067 21.6337 34.8495 22.1647C34.2923 22.6957 33.5987 23.0781 32.8379 23.2739C30.056 24 18.7935 24 18.7935 24C18.7935 24 7.5602 23.9861 4.76372 23.26ZM15.2241 17.1314L24.5432 11.9931L15.2241 6.85466V17.1314Z" fill="#FF0000"/>
<path d="M15.2241 17.1314L24.5432 11.9793L15.2241 6.85466V17.1314Z" fill="white"/>
</svg>
